<?xml version="1.0" standalone="no"?>
<!DOCTYPE svg PUBLIC "-//W3C//DTD SVG 20010904//EN"
 "http://www.w3.org/TR/2001/REC-SVG-20010904/DTD/svg10.dtd">
<svg version="1.0" xmlns="http://www.w3.org/2000/svg"
 width="500.000000pt" height="500.000000pt" viewBox="0 0 500.000000 500.000000"
 preserveAspectRatio="xMidYMid meet">

<g transform="translate(0.000000,500.000000) scale(0.100000,-0.100000)"
fill="#000000" stroke="none">
<path d="M1690 3884 c-16 -41 -30 -151 -30 -235 0 -71 -2 -78 -26 -93 -39 -26
-84 -17 -110 21 l-22 33 -32 -37 c-55 -62 -73 -128 -51 -186 9 -22 5 -28 -30
-53 -62 -42 -146 -139 -181 -207 -29 -56 -32 -71 -33 -152 0 -76 4 -97 24
-135 85 -162 220 -197 526 -135 44 9 102 23 128 30 42 12 49 12 52 0 3 -8 7
-22 10 -30 4 -13 -9 -15 -78 -15 -93 0 -175 -20 -201 -49 -25 -27 -30 -81 -13
-123 28 -67 75 -80 222 -65 80 8 78 6 -23 -23 -79 -23 -136 -64 -146 -105 -10
-38 12 -104 44 -137 50 -50 139 -32 332 69 l106 56 56 -37 c168 -111 337 -147
549 -115 86 12 123 23 199 56 l57 25 78 -72 c119 -111 158 -135 220 -135 39 0
56 5 70 20 82 89 68 169 -40 237 -79 49 -176 122 -177 131 0 11 29 2 115 -36
39 -17 94 -32 122 -35 49 -4 55 -2 87 30 45 45 57 99 29 136 -27 37 -97 69
-212 96 l-96 23 -7 54 c-6 45 -4 57 11 73 12 12 26 16 39 12 11 -4 67 -54 125
-111 127 -127 187 -161 274 -152 193 20 276 260 128 373 -20 15 -37 25 -38 23
-2 -2 -11 -23 -21 -45 -10 -23 -29 -48 -43 -55 -21 -12 -30 -10 -66 9 -23 12
-87 60 -141 106 -116 98 -171 128 -243 134 -43 4 -60 0 -97 -22 -24 -14 -56
-40 -70 -57 l-26 -31 -53 24 c-53 25 -148 58 -224 78 -49 12 -49 11 -57 190
-6 133 -23 199 -69 266 -43 64 -92 88 -188 92 -60 3 -86 0 -121 -16 l-45 -19
-9 31 c-12 41 -42 45 -100 12 -55 -31 -54 -31 -54 -8 0 30 -49 91 -90 112 -46
24 -133 26 -170 5 -34 -19 -37 -19 -44 11 -17 67 -85 184 -107 184 -5 0 -14
-12 -19 -26z m54 -43 c14 -27 14 -28 -20 -43 -32 -14 -34 -14 -34 2 0 29 21
80 31 74 5 -3 16 -18 23 -33z m41 -87 c18 -44 18 -44 2 -44 -8 0 -35 -11 -60
-24 l-47 -23 0 36 c0 40 13 62 45 79 33 18 44 14 60 -24z m232 -55 c61 -29 83
-61 83 -120 0 -54 -15 -73 -23 -31 -8 42 -44 80 -85 93 -30 8 -46 7 -82 -5
-25 -9 -49 -18 -54 -19 -14 -3 -25 61 -12 72 43 33 116 38 173 10z m-203 -31
c10 -41 7 -47 -36 -59 -23 -6 -51 -17 -62 -25 -29 -20 -36 -18 -36 14 0 61
119 123 134 70z m197 -55 c29 -17 59 -76 59 -114 0 -12 -9 -32 -20 -46 -18
-24 -25 -23 -21 1 1 6 -5 29 -14 53 -20 53 -50 63 -112 41 l-43 -16 0 34 c0
29 5 36 33 48 44 20 83 19 118 -1z m250 -15 c16 -30 6 -134 -20 -194 -20 -48
-20 -48 -1 -25 11 13 22 22 25 19 10 -10 36 -129 42 -194 5 -63 8 -71 24 -67
17 5 19 -2 20 -88 l2 -94 8 75 c10 95 3 157 -22 192 -34 48 -18 76 26 44 21
-15 25 -72 12 -206 -6 -63 -6 -82 3 -74 6 6 14 65 17 138 7 140 1 158 -57 171
-31 7 -48 34 -28 46 6 4 27 10 46 14 71 13 104 -45 117 -210 8 -109 15 -156
24 -151 7 5 -11 218 -24 278 -18 84 -60 113 -139 96 -45 -10 -46 -9 -49 28 -2
25 3 29 43 41 57 18 137 3 167 -30 46 -50 52 -74 87 -336 8 -56 20 -108 26
-115 10 -8 12 -7 7 6 -3 10 -11 57 -17 105 -32 260 -45 308 -95 352 -41 36
-108 48 -180 34 -27 -6 -51 -10 -52 -9 -1 1 0 18 4 38 7 46 36 58 138 58 60 0
82 -5 126 -28 45 -24 59 -37 84 -87 29 -57 30 -64 35 -231 3 -95 8 -176 13
-180 4 -4 8 60 9 142 l1 149 11 -142 c6 -78 14 -145 19 -149 4 -4 7 0 7 9 0
22 9 21 110 -8 170 -50 288 -124 330 -205 42 -83 46 -257 8 -349 l-13 -31 -58
46 c-32 26 -60 44 -63 42 -8 -9 199 -171 298 -233 27 -17 48 -33 48 -38 0 -4
-28 -45 -62 -90 -34 -45 -63 -84 -65 -86 -9 -12 -69 35 -160 127 -57 56 -106
102 -110 102 -3 0 2 -9 12 -19 17 -19 16 -21 -16 -41 -75 -45 -196 -69 -355
-70 -107 0 -145 4 -200 21 -121 37 -257 120 -235 142 29 29 3 21 -76 -25 -96
-56 -214 -112 -253 -121 -24 -6 -27 -1 -58 86 -19 51 -36 100 -39 109 -4 13 5
19 39 28 79 20 290 94 307 108 14 11 13 12 -9 6 -14 -3 -37 -12 -52 -19 -26
-12 -27 -12 -56 44 -31 57 -76 190 -68 199 3 2 39 19 80 37 80 35 180 94 172
102 -3 3 -31 -11 -63 -31 -76 -46 -160 -80 -277 -111 -294 -76 -456 -73 -553
10 -99 85 -126 229 -67 355 35 72 93 143 168 202 l49 39 31 -30 c65 -63 168
-89 277 -69 143 25 324 155 364 261 15 40 27 54 69 78 61 35 72 36 87 7z
m-426 -25 c4 -16 8 -37 10 -48 7 -34 -23 -55 -80 -55 -55 0 -75 12 -75 45 0
29 29 54 82 70 58 18 57 19 63 -12z m666 6 c73 -16 129 -73 158 -162 13 -37
20 -77 18 -89 -4 -21 -4 -21 -6 3 -4 81 -61 171 -128 201 -55 24 -169 35 -214
19 -23 -8 -30 -8 -23 -1 16 16 84 39 116 40 15 0 50 -5 79 -11z m-960 -111
c24 -20 76 -23 111 -7 17 7 32 6 56 -4 l33 -14 -39 -25 c-77 -51 -145 -53
-191 -4 -25 26 -39 101 -26 133 6 14 10 10 21 -22 8 -22 24 -48 35 -57z m129
42 c0 -26 -5 -31 -39 -40 -48 -13 -83 1 -100 37 -13 29 -7 43 11 25 16 -16 57
-15 88 2 31 18 40 12 40 -24z m310 22 c18 -14 24 -32 28 -75 5 -64 -7 -74 -29
-24 -11 26 -20 32 -49 35 -28 2 -58 -12 -158 -72 -142 -86 -188 -99 -249 -70
-69 34 -113 137 -79 186 16 22 16 22 16 -10 0 -40 19 -78 55 -112 40 -38 115
-35 181 6 74 46 86 52 117 59 17 3 35 18 45 35 9 16 33 36 52 44 45 19 44 19
70 -2z m-26 -88 c9 -8 16 -28 16 -44 0 -23 -9 -34 -49 -59 -116 -75 -262 -99
-363 -61 -32 12 -60 26 -64 32 -4 6 3 5 16 -2 30 -16 101 -16 142 0 18 8 74
39 123 68 84 51 141 81 157 82 4 0 14 -7 22 -16z m389 -264 c3 -11 2 -20 -3
-20 -4 0 -10 11 -12 25 -6 29 7 25 15 -5z m989 -167 c26 -14 92 -64 145 -109
137 -117 189 -138 234 -93 11 11 23 18 26 15 3 -3 -10 -21 -30 -41 -57 -57
-99 -47 -253 60 -181 127 -245 141 -321 73 -21 -20 -22 -20 -47 -2 -14 11 -25
26 -23 34 3 17 93 87 122 94 38 8 99 -5 147 -31z m-36 -88 c20 -8 78 -44 128
-79 151 -104 199 -124 251 -102 44 19 75 61 75 104 0 29 2 33 15 22 21 -18 29
-73 15 -114 -6 -19 -29 -51 -51 -70 -71 -65 -122 -51 -314 84 -60 42 -120 83
-133 89 -34 18 -79 17 -100 -3 -18 -15 -20 -15 -35 2 -23 25 -21 37 9 61 32
25 89 27 140 6z m-23 -81 c18 -9 82 -52 144 -95 136 -97 192 -123 244 -116 72
10 139 87 142 163 2 43 2 43 19 22 34 -46 30 -144 -10 -197 -32 -43 -98 -88
-140 -94 -50 -8 -121 12 -170 49 -20 15 -76 67 -123 115 -89 91 -123 109 -164
91 -22 -10 -24 -8 -31 20 -5 24 -2 35 12 45 23 17 38 16 77 -3z m-1362 -174
c11 0 19 -6 19 -13 0 -7 16 -45 35 -86 19 -40 33 -76 30 -80 -4 -8 -243 -36
-249 -30 -2 2 -7 50 -11 106 l-7 102 38 4 c22 3 59 3 83 1 24 -2 52 -4 62 -4z
m-197 -41 c7 -39 8 -169 1 -169 -4 0 -19 7 -36 15 -54 28 -68 117 -24 160 33
34 51 31 59 -6z m1586 -24 c36 -9 86 -23 112 -32 l47 -16 -28 -56 c-16 -31
-34 -73 -40 -93 -7 -21 -16 -38 -21 -38 -5 0 -50 17 -100 37 -68 28 -89 41
-85 52 3 8 11 48 17 88 6 40 16 73 22 73 6 0 40 -7 76 -15z m208 -90 c37 -47
-4 -136 -70 -150 -17 -4 -34 -3 -38 1 -11 12 59 174 75 174 8 0 22 -11 33 -25z
m-1736 -202 c45 -119 49 -133 34 -139 -8 -3 -30 1 -49 10 -39 16 -67 65 -67
116 0 26 33 80 49 80 4 0 19 -30 33 -67z m1653 -133 c12 -53 -53 -140 -104
-140 -52 0 -58 14 -26 62 15 24 43 62 62 86 39 47 56 45 68 -8z"/>
<path d="M1928 3223 c-20 -42 -61 -52 -98 -25 -16 12 -31 22 -33 22 -2 0 -3
-16 -3 -35 1 -34 9 -44 20 -26 10 15 57 -1 66 -23 9 -21 9 -21 9 1 1 27 34 47
64 37 19 -6 20 -5 9 9 -8 9 -10 25 -6 41 8 35 -11 34 -28 -1z"/>
<path d="M2303 3093 c-19 -58 -44 -104 -73 -136 -18 -21 -30 -40 -28 -43 15
-15 98 109 112 169 7 30 -1 37 -11 10z"/>
<path d="M2681 2984 c0 -11 3 -14 6 -6 3 7 2 16 -1 19 -3 4 -6 -2 -5 -13z"/>
<path d="M2720 2964 c0 -8 5 -12 10 -9 6 4 8 11 5 16 -9 14 -15 11 -15 -7z"/>
<path d="M2770 2960 l-25 -19 31 2 c21 1 31 7 31 20 2 22 -6 21 -37 -3z"/>
<path d="M2377 2963 c-11 -10 -8 -61 3 -68 6 -4 10 10 10 34 0 42 -2 46 -13
34z"/>
<path d="M2511 2917 c-2 -49 36 -106 82 -128 76 -34 188 -20 239 31 37 38 39
10 2 -46 -106 -164 -384 -122 -434 68 -10 37 -40 54 -40 23 0 -57 67 -137 148
-177 90 -45 162 -46 247 -3 83 42 118 95 124 189 3 62 2 68 -14 63 -9 -4 -21
-7 -25 -7 -5 0 -14 -9 -20 -20 -10 -19 -10 -20 9 -8 29 18 35 5 17 -34 -44
-92 -220 -112 -284 -32 -15 18 -32 51 -39 71 -10 35 -12 36 -12 10z"/>
<path d="M2705 2920 c3 -5 8 -10 11 -10 2 0 4 5 4 10 0 6 -5 10 -11 10 -5 0
-7 -4 -4 -10z"/>
<path d="M2758 2903 c6 -2 18 -2 25 0 6 3 1 5 -13 5 -14 0 -19 -2 -12 -5z"/>
<path d="M2664 2882 c10 -16 94 -26 119 -14 19 9 17 11 -19 11 -23 1 -56 4
-74 8 -23 4 -31 3 -26 -5z"/>
<path d="M1448 2827 c-23 -29 -32 -32 -77 -31 -50 0 -66 -8 -35 -20 42 -16 84
-6 124 30 22 20 40 40 40 45 0 19 -26 6 -52 -24z"/>
<path d="M2597 1643 c-4 -3 -7 -69 -7 -146 l0 -139 70 4 c62 3 74 7 101 34 56
56 58 165 5 211 -39 34 -149 57 -169 36z m106 -54 c29 -13 47 -48 47 -89 0
-59 -37 -100 -90 -100 -19 0 -20 7 -20 100 0 93 1 100 20 100 10 0 30 -5 43
-11z"/>
<path d="M3267 1643 c-4 -3 -7 -69 -7 -146 l0 -139 70 4 c62 3 74 7 101 34 56
56 58 165 5 211 -39 34 -149 57 -169 36z m106 -54 c29 -13 47 -48 47 -89 0
-59 -37 -100 -90 -100 -19 0 -20 7 -20 100 0 93 1 100 20 100 10 0 30 -5 43
-11z"/>
<path d="M1267 1507 c-26 -73 -47 -136 -47 -140 0 -5 12 -7 27 -5 20 2 29 10
33 28 5 22 12 25 58 28 51 3 53 2 63 -27 9 -25 16 -31 41 -31 25 0 29 3 23 18
-4 9 -24 64 -45 122 -21 58 -41 113 -45 123 -4 10 -18 17 -34 17 -25 0 -29 -8
-74 -133z m103 -29 c0 -5 -14 -8 -31 -8 -28 0 -31 2 -25 25 3 13 11 37 17 52
l11 28 14 -45 c7 -25 14 -48 14 -52z"/>
<path d="M1540 1620 c0 -16 7 -20 35 -20 l35 0 0 -120 0 -120 30 0 30 0 0 120
0 120 35 0 c28 0 35 4 35 20 0 19 -7 20 -100 20 -93 0 -100 -1 -100 -20z"/>
<path d="M1860 1500 l0 -140 25 0 25 0 0 140 0 140 -25 0 -25 0 0 -140z"/>
<path d="M2079 1500 c44 -134 47 -139 74 -140 20 0 27 5 27 18 0 10 18 69 40
131 22 61 40 117 40 122 0 6 -12 9 -27 7 -24 -3 -28 -11 -51 -90 -14 -49 -28
-88 -31 -88 -4 0 -19 41 -34 90 -26 86 -28 90 -56 90 l-29 0 47 -140z"/>
<path d="M2380 1500 l0 -140 30 0 30 0 0 140 0 140 -30 0 -30 0 0 -140z"/>
<path d="M2947 1507 c-26 -73 -47 -136 -47 -140 0 -5 12 -7 27 -5 20 2 29 10
33 28 5 22 12 25 58 28 51 3 53 2 63 -27 9 -25 16 -31 41 -31 25 0 29 3 23 18
-4 9 -24 64 -45 122 -21 58 -41 113 -45 123 -4 10 -18 17 -34 17 -25 0 -29 -8
-74 -133z m103 -29 c0 -5 -14 -8 -31 -8 -28 0 -31 2 -25 25 3 13 11 37 17 52
l11 28 14 -45 c7 -25 14 -48 14 -52z"/>
<path d="M3610 1500 l0 -140 75 0 c73 0 75 1 75 25 0 23 -3 25 -50 25 l-50 0
0 40 0 40 40 0 c36 0 40 3 40 25 0 23 -4 25 -40 25 -38 0 -40 1 -40 31 l0 32
50 -5 c47 -5 50 -4 50 18 0 23 -3 24 -75 24 l-75 0 0 -140z"/>
</g>
</svg>
